<?xml version="1.0" standalone="no"?>
<!DOCTYPE svg PUBLIC "-//W3C//DTD SVG 20010904//EN"
 "http://www.w3.org/TR/2001/REC-SVG-20010904/DTD/svg10.dtd">
<svg version="1.0" xmlns="http://www.w3.org/2000/svg"
 width="1024.000000pt" height="1024.000000pt" viewBox="0 0 1024.000000 1024.000000"
 preserveAspectRatio="xMidYMid meet">

<g transform="translate(0.000000,1024.000000) scale(0.100000,-0.100000)"
fill="#000000" stroke="none">
<path d="M2480 8680 c-442 -45 -809 -364 -926 -805 -18 -67 -19 -166 -19
-2725 l0 -2655 27 -97 c53 -191 138 -340 272 -474 129 -129 271 -212 461 -271
l90 -28 2720 0 2720 0 97 27 c181 51 363 161 499 304 141 148 228 317 275 534
18 82 19 191 19 2690 l0 2605 -28 100 c-54 197 -151 359 -298 500 -141 134
-291 216 -498 274 l-96 26 -2620 1 c-1441 1 -2654 -2 -2695 -6z m1004 -1436
c104 -27 185 -72 256 -144 74 -74 38 -10 535 -965 174 -335 332 -637 350 -670
94 -172 475 -905 475 -915 0 -5 5 -10 10 -10 6 0 10 5 10 10 0 6 42 88 94 183
128 235 475 890 691 1302 421 803 524 995 555 1033 45 57 137 121 223 157 l72
30 419 3 c383 3 420 2 437 -14 25 -23 24 -52 -4 -105 -13 -24 -116 -217 -229
-429 -196 -367 -526 -995 -906 -1720 -209 -399 -392 -744 -767 -1449 -308
-576 -331 -611 -442 -666 -159 -78 -336 -24 -437 133 -37 58 -368 680 -739
1387 -164 314 -318 603 -514 965 -811 1498 -983 1821 -983 1846 0 9 7 26 17
36 15 17 41 18 416 18 331 0 410 -3 461 -16z"/>
</g>
</svg>
